<svg xmlns="http://www.w3.org/2000/svg" width="469.325" height="512" viewBox="0 0 469.325 512">
  <path id="asterisk-solid" d="M478.21,334.093,336,256l142.21-78.093a24,24,0,0,0,9.232-33.037l-19.48-33.741a24,24,0,0,0-33.227-8.523L296,186.718l3.475-162.2A24,24,0,0,0,275.48,0H236.52a24,24,0,0,0-23.994,24.514L216,186.718,77.265,102.607a24,24,0,0,0-33.227,8.523l-19.48,33.741a24,24,0,0,0,9.233,33.037L176,256,33.79,334.093a24,24,0,0,0-9.232,33.037l19.48,33.741a24,24,0,0,0,33.227,8.523L216,325.282l-3.475,162.2a24,24,0,0,0,24,24.514h38.961a24,24,0,0,0,23.995-24.514L296,325.282l138.735,84.111a24,24,0,0,0,33.227-8.523l19.48-33.741A24,24,0,0,0,478.21,334.093Z" transform="translate(-21.337)" fill="#b00"/>
</svg>
