<svg xmlns="http://www.w3.org/2000/svg" width="329.057" height="312.663" viewBox="0 0 329.057 312.663">
  <g id="Group_1" data-name="Group 1" transform="matrix(0.545, 0.839, -0.839, 0.545, 220.235, -27.784)">
    <path id="Icon_ionic-ios-leaf" data-name="Icon ionic-ios-leaf" d="M32.862,25.481c-4.194-.648-4.51-.947-4.51-.947C29.616,18.542,26.539,12.3,22.175,8.7,16.362,3.9,7.529,7.385.647.1c-1.6-1.7-.672,19.067,7.943,26.937A15.145,15.145,0,0,0,24.337,30.08a9.015,9.015,0,0,0,3.133-2.745,23.76,23.76,0,0,0,5.02,1.15C33.672,28.63,34.271,25.7,32.862,25.481Zm-7.433.6c-6.291-1.886-11.764-6.558-15.31-10.218a.33.33,0,0,1,.445-.486,49.236,49.236,0,0,0,15.65,8.736A3.019,3.019,0,0,1,25.43,26.08Z" transform="translate(99.816 198.374) rotate(-81)" fill="#284601"/>
    <path id="Icon_ionic-ios-leaf-2" data-name="Icon ionic-ios-leaf" d="M32.862,25.481c-4.194-.648-4.51-.947-4.51-.947C29.616,18.542,26.539,12.3,22.175,8.7,16.362,3.9,7.529,7.385.647.1c-1.6-1.7-.672,19.067,7.943,26.937A15.145,15.145,0,0,0,24.337,30.08a9.015,9.015,0,0,0,3.133-2.745,23.76,23.76,0,0,0,5.02,1.15C33.672,28.63,34.271,25.7,32.862,25.481Zm-7.433.6c-6.291-1.886-11.764-6.558-15.31-10.218a.33.33,0,0,1,.445-.486,49.236,49.236,0,0,0,15.65,8.736A3.019,3.019,0,0,1,25.43,26.08Z" transform="matrix(0.788, -0.616, 0.616, 0.788, 145.497, 216.604)" fill="#284601"/>
    <path id="Path_1" data-name="Path 1" d="M21.8,0S-18.544,46.607,10.532,122.807s80.092,47.462,80.092,47.462,72.124-16.706,70.119,115.641" transform="translate(37.012 0)" fill="none" stroke="#775000" stroke-width="2"/>
    <path id="Icon_ionic-ios-leaf-3" data-name="Icon ionic-ios-leaf" d="M32.862,25.481c-4.194-.648-4.51-.947-4.51-.947C29.616,18.542,26.539,12.3,22.175,8.7,16.362,3.9,7.529,7.385.647.1c-1.6-1.7-.672,19.067,7.943,26.937A15.145,15.145,0,0,0,24.337,30.08a9.015,9.015,0,0,0,3.133-2.745,23.76,23.76,0,0,0,5.02,1.15C33.672,28.63,34.271,25.7,32.862,25.481Zm-7.433.6c-6.291-1.886-11.764-6.558-15.31-10.218a.33.33,0,0,1,.445-.486,49.236,49.236,0,0,0,15.65,8.736A3.019,3.019,0,0,1,25.43,26.08Z" transform="translate(37.005 175.455) rotate(-49)" fill="#284601"/>
    <path id="Icon_ionic-ios-leaf-4" data-name="Icon ionic-ios-leaf" d="M32.862,25.481c-4.194-.648-4.51-.947-4.51-.947C29.616,18.542,26.539,12.3,22.175,8.7,16.362,3.9,7.529,7.385.647.1c-1.6-1.7-.672,19.067,7.943,26.937A15.145,15.145,0,0,0,24.337,30.08a9.015,9.015,0,0,0,3.133-2.745,23.76,23.76,0,0,0,5.02,1.15C33.672,28.63,34.271,25.7,32.862,25.481Zm-7.433.6c-6.291-1.886-11.764-6.558-15.31-10.218a.33.33,0,0,1,.445-.486,49.236,49.236,0,0,0,15.65,8.736A3.019,3.019,0,0,1,25.43,26.08Z" transform="translate(7.508 115.683) rotate(-24)" fill="#284601"/>
    <path id="Icon_ionic-ios-leaf-5" data-name="Icon ionic-ios-leaf" d="M32.862,25.481c-4.194-.648-4.51-.947-4.51-.947C29.616,18.542,26.539,12.3,22.175,8.7,16.362,3.9,7.529,7.385.647.1c-1.6-1.7-.672,19.067,7.943,26.937A15.145,15.145,0,0,0,24.337,30.08a9.015,9.015,0,0,0,3.133-2.745,23.76,23.76,0,0,0,5.02,1.15C33.672,28.63,34.271,25.7,32.862,25.481Zm-7.433.6c-6.291-1.886-11.764-6.558-15.31-10.218a.33.33,0,0,1,.445-.486,49.236,49.236,0,0,0,15.65,8.736A3.019,3.019,0,0,1,25.43,26.08Z" transform="matrix(0.993, -0.122, 0.122, 0.993, 0, 51.014)" fill="#284601"/>
    <path id="Icon_ionic-ios-leaf-6" data-name="Icon ionic-ios-leaf" d="M32.862,25.481c-4.194-.648-4.51-.947-4.51-.947C29.616,18.542,26.539,12.3,22.175,8.7,16.362,3.9,7.529,7.385.647.1c-1.6-1.7-.672,19.067,7.943,26.937A15.145,15.145,0,0,0,24.337,30.08a9.015,9.015,0,0,0,3.133-2.745,23.76,23.76,0,0,0,5.02,1.15C33.672,28.63,34.271,25.7,32.862,25.481Zm-7.433.6c-6.291-1.886-11.764-6.558-15.31-10.218a.33.33,0,0,1,.445-.486,49.236,49.236,0,0,0,15.65,8.736A3.019,3.019,0,0,1,25.43,26.08Z" transform="matrix(-0.242, 0.97, -0.97, -0.242, 75.198, 74.27)" fill="#284601"/>
    <path id="Icon_ionic-ios-leaf-7" data-name="Icon ionic-ios-leaf" d="M32.862,25.481c-4.194-.648-4.51-.947-4.51-.947C29.616,18.542,26.539,12.3,22.175,8.7,16.362,3.9,7.529,7.385.647.1c-1.6-1.7-.672,19.067,7.943,26.937A15.145,15.145,0,0,0,24.337,30.08a9.015,9.015,0,0,0,3.133-2.745,23.76,23.76,0,0,0,5.02,1.15C33.672,28.63,34.271,25.7,32.862,25.481Zm-7.433.6c-6.291-1.886-11.764-6.558-15.31-10.218a.33.33,0,0,1,.445-.486,49.236,49.236,0,0,0,15.65,8.736A3.019,3.019,0,0,1,25.43,26.08Z" transform="translate(101.262 146.923) rotate(144)" fill="#284601"/>
    <path id="Icon_ionic-ios-leaf-8" data-name="Icon ionic-ios-leaf" d="M.755,24.156c3.867-.614,4.158-.9,4.158-.9-1.165-5.68,1.672-11.6,5.7-15.013C15.968,3.7,24.113,7,30.458.093c1.478-1.612.62,18.076-7.323,25.536A13.664,13.664,0,0,1,8.615,28.515a8.406,8.406,0,0,1-2.889-2.6A21.387,21.387,0,0,1,1.1,27C.008,27.141-.544,24.363.755,24.156Zm6.853.568c5.8-1.788,10.847-6.217,14.116-9.686a.309.309,0,0,0-.411-.461,45.086,45.086,0,0,1-14.43,8.282A2.906,2.906,0,0,0,7.607,24.724Z" transform="matrix(0.998, 0.07, -0.07, 0.998, 158.022, 149.578)" fill="#284601"/>
    <path id="Icon_ionic-ios-leaf-9" data-name="Icon ionic-ios-leaf" d="M.755,24.156c3.867-.614,4.158-.9,4.158-.9-1.165-5.68,1.672-11.6,5.7-15.013C15.968,3.7,24.113,7,30.458.093c1.478-1.612.62,18.076-7.323,25.536A13.664,13.664,0,0,1,8.615,28.515a8.406,8.406,0,0,1-2.889-2.6A21.387,21.387,0,0,1,1.1,27C.008,27.141-.544,24.363.755,24.156Zm6.853.568c5.8-1.788,10.847-6.217,14.116-9.686a.309.309,0,0,0-.411-.461,45.086,45.086,0,0,1-14.43,8.282A2.906,2.906,0,0,0,7.607,24.724Z" transform="matrix(0.998, 0.07, -0.07, 0.998, 199.821, 241.287)" fill="#284601"/>
    <path id="Icon_ionic-ios-leaf-10" data-name="Icon ionic-ios-leaf" d="M.755,24.156c3.867-.614,4.158-.9,4.158-.9-1.165-5.68,1.672-11.6,5.7-15.013C15.968,3.7,24.113,7,30.458.093c1.478-1.612.62,18.076-7.323,25.536A13.664,13.664,0,0,1,8.615,28.515a8.406,8.406,0,0,1-2.889-2.6A21.387,21.387,0,0,1,1.1,27C.008,27.141-.544,24.363.755,24.156Zm6.853.568c5.8-1.788,10.847-6.217,14.116-9.686a.309.309,0,0,0-.411-.461,45.086,45.086,0,0,1-14.43,8.282A2.906,2.906,0,0,0,7.607,24.724Z" transform="matrix(0.998, 0.07, -0.07, 0.998, 41.359, 15.447)" fill="#284601"/>
  </g>
</svg>
