<svg xmlns="http://www.w3.org/2000/svg" width="211.388" height="224.985" viewBox="0 0 211.388 224.985">
  <g id="Group_3" data-name="Group 3" transform="translate(229.286 154.515) rotate(149)">
    <path id="Icon_ionic-ios-leaf" data-name="Icon ionic-ios-leaf" d="M22.385,17.357c-2.857-.441-3.072-.645-3.072-.645.86-4.081-1.235-8.333-4.208-10.788C11.145,2.659,5.128,5.031.441.067-.651-1.091-.017,13.055,5.851,18.416A10.316,10.316,0,0,0,16.578,20.49a6.141,6.141,0,0,0,2.134-1.87,16.185,16.185,0,0,0,3.419.783C22.937,19.5,23.345,17.506,22.385,17.357Zm-5.063.408C13.037,16.48,9.309,13.3,6.893,10.805a.225.225,0,0,1,.3-.331,33.539,33.539,0,0,0,10.661,5.951A2.056,2.056,0,0,1,17.322,17.765Z" transform="translate(67.993 135.128) rotate(-81)" fill="#284601"/>
    <path id="Icon_ionic-ios-leaf-2" data-name="Icon ionic-ios-leaf" d="M22.385,17.357c-2.857-.441-3.072-.645-3.072-.645.86-4.081-1.235-8.333-4.208-10.788C11.145,2.659,5.128,5.031.441.067-.651-1.091-.017,13.055,5.851,18.416A10.316,10.316,0,0,0,16.578,20.49a6.141,6.141,0,0,0,2.134-1.87,16.185,16.185,0,0,0,3.419.783C22.937,19.5,23.345,17.506,22.385,17.357Zm-5.063.408C13.037,16.48,9.309,13.3,6.893,10.805a.225.225,0,0,1,.3-.331,33.539,33.539,0,0,0,10.661,5.951A2.056,2.056,0,0,1,17.322,17.765Z" transform="matrix(0.788, -0.616, 0.616, 0.788, 99.109, 147.546)" fill="#284601"/>
    <path id="Path_1" data-name="Path 1" d="M14.853,0S-12.632,31.748,7.174,83.654s54.557,32.33,54.557,32.33,49.129-11.38,47.763,78.772" transform="translate(25.211 0)" fill="none" stroke="#775000" stroke-width="2"/>
    <path id="Icon_ionic-ios-leaf-3" data-name="Icon ionic-ios-leaf" d="M22.385,17.357c-2.857-.441-3.072-.645-3.072-.645.86-4.081-1.235-8.333-4.208-10.788C11.145,2.659,5.128,5.031.441.067-.651-1.091-.017,13.055,5.851,18.416A10.316,10.316,0,0,0,16.578,20.49a6.141,6.141,0,0,0,2.134-1.87,16.185,16.185,0,0,0,3.419.783C22.937,19.5,23.345,17.506,22.385,17.357Zm-5.063.408C13.037,16.48,9.309,13.3,6.893,10.805a.225.225,0,0,1,.3-.331,33.539,33.539,0,0,0,10.661,5.951A2.056,2.056,0,0,1,17.322,17.765Z" transform="translate(25.207 119.516) rotate(-49)" fill="#284601"/>
    <path id="Icon_ionic-ios-leaf-4" data-name="Icon ionic-ios-leaf" d="M22.385,17.357c-2.857-.441-3.072-.645-3.072-.645.86-4.081-1.235-8.333-4.208-10.788C11.145,2.659,5.128,5.031.441.067-.651-1.091-.017,13.055,5.851,18.416A10.316,10.316,0,0,0,16.578,20.49a6.141,6.141,0,0,0,2.134-1.87,16.185,16.185,0,0,0,3.419.783C22.937,19.5,23.345,17.506,22.385,17.357Zm-5.063.408C13.037,16.48,9.309,13.3,6.893,10.805a.225.225,0,0,1,.3-.331,33.539,33.539,0,0,0,10.661,5.951A2.056,2.056,0,0,1,17.322,17.765Z" transform="translate(5.114 78.801) rotate(-24)" fill="#284601"/>
    <path id="Icon_ionic-ios-leaf-5" data-name="Icon ionic-ios-leaf" d="M22.385,17.357c-2.857-.441-3.072-.645-3.072-.645.86-4.081-1.235-8.333-4.208-10.788C11.145,2.659,5.128,5.031.441.067-.651-1.091-.017,13.055,5.851,18.416A10.316,10.316,0,0,0,16.578,20.49a6.141,6.141,0,0,0,2.134-1.87,16.185,16.185,0,0,0,3.419.783C22.937,19.5,23.345,17.506,22.385,17.357Zm-5.063.408C13.037,16.48,9.309,13.3,6.893,10.805a.225.225,0,0,1,.3-.331,33.539,33.539,0,0,0,10.661,5.951A2.056,2.056,0,0,1,17.322,17.765Z" transform="matrix(0.993, -0.122, 0.122, 0.993, 0, 34.75)" fill="#284601"/>
    <path id="Icon_ionic-ios-leaf-6" data-name="Icon ionic-ios-leaf" d="M22.385,17.357c-2.857-.441-3.072-.645-3.072-.645.86-4.081-1.235-8.333-4.208-10.788C11.145,2.659,5.128,5.031.441.067-.651-1.091-.017,13.055,5.851,18.416A10.316,10.316,0,0,0,16.578,20.49a6.141,6.141,0,0,0,2.134-1.87,16.185,16.185,0,0,0,3.419.783C22.937,19.5,23.345,17.506,22.385,17.357Zm-5.063.408C13.037,16.48,9.309,13.3,6.893,10.805a.225.225,0,0,1,.3-.331,33.539,33.539,0,0,0,10.661,5.951A2.056,2.056,0,0,1,17.322,17.765Z" transform="matrix(-0.242, 0.97, -0.97, -0.242, 51.223, 50.591)" fill="#284601"/>
    <path id="Icon_ionic-ios-leaf-7" data-name="Icon ionic-ios-leaf" d="M22.385,17.357c-2.857-.441-3.072-.645-3.072-.645.86-4.081-1.235-8.333-4.208-10.788C11.145,2.659,5.128,5.031.441.067-.651-1.091-.017,13.055,5.851,18.416A10.316,10.316,0,0,0,16.578,20.49a6.141,6.141,0,0,0,2.134-1.87,16.185,16.185,0,0,0,3.419.783C22.937,19.5,23.345,17.506,22.385,17.357Zm-5.063.408C13.037,16.48,9.309,13.3,6.893,10.805a.225.225,0,0,1,.3-.331,33.539,33.539,0,0,0,10.661,5.951A2.056,2.056,0,0,1,17.322,17.765Z" transform="translate(68.977 100.08) rotate(144)" fill="#284601"/>
    <path id="Icon_ionic-ios-leaf-8" data-name="Icon ionic-ios-leaf" d="M.514,16.454a10.057,10.057,0,0,0,2.832-.612c-.793-3.869,1.139-7.9,3.88-10.227,3.651-3.1,9.2-.847,13.521-5.552,1.007-1.1.422,12.313-4.988,17.395a9.307,9.307,0,0,1-9.89,1.966A5.726,5.726,0,0,1,3.9,17.652a14.569,14.569,0,0,1-3.153.742C.006,18.488-.371,16.6.514,16.454Zm4.668.387c3.951-1.218,7.389-4.235,9.616-6.6a.211.211,0,0,0-.28-.314,30.712,30.712,0,0,1-9.829,5.641A1.979,1.979,0,0,0,5.182,16.841Z" transform="matrix(0.998, 0.07, -0.07, 0.998, 107.641, 101.889)" fill="#284601"/>
    <path id="Icon_ionic-ios-leaf-9" data-name="Icon ionic-ios-leaf" d="M.514,16.454a10.057,10.057,0,0,0,2.832-.612c-.793-3.869,1.139-7.9,3.88-10.227,3.651-3.1,9.2-.847,13.521-5.552,1.007-1.1.422,12.313-4.988,17.395a9.307,9.307,0,0,1-9.89,1.966A5.726,5.726,0,0,1,3.9,17.652a14.569,14.569,0,0,1-3.153.742C.006,18.488-.371,16.6.514,16.454Zm4.668.387c3.951-1.218,7.389-4.235,9.616-6.6a.211.211,0,0,0-.28-.314,30.712,30.712,0,0,1-9.829,5.641A1.979,1.979,0,0,0,5.182,16.841Z" transform="matrix(0.998, 0.07, -0.07, 0.998, 136.113, 164.359)" fill="#284601"/>
    <path id="Icon_ionic-ios-leaf-10" data-name="Icon ionic-ios-leaf" d="M.514,16.454a10.057,10.057,0,0,0,2.832-.612c-.793-3.869,1.139-7.9,3.88-10.227,3.651-3.1,9.2-.847,13.521-5.552,1.007-1.1.422,12.313-4.988,17.395a9.307,9.307,0,0,1-9.89,1.966A5.726,5.726,0,0,1,3.9,17.652a14.569,14.569,0,0,1-3.153.742C.006,18.488-.371,16.6.514,16.454Zm4.668.387c3.951-1.218,7.389-4.235,9.616-6.6a.211.211,0,0,0-.28-.314,30.712,30.712,0,0,1-9.829,5.641A1.979,1.979,0,0,0,5.182,16.841Z" transform="matrix(0.998, 0.07, -0.07, 0.998, 28.173, 10.522)" fill="#284601"/>
  </g>
</svg>
