<svg xmlns="http://www.w3.org/2000/svg" width="496" height="496" viewBox="0 0 496 496">
  <path id="redo-alt-solid" d="M255.545,8A247.154,247.154,0,0,0,84.686,76.685L48.971,40.97C33.851,25.851,8,36.559,8,57.941V192a24,24,0,0,0,24,24H166.059c21.382,0,32.09-25.851,16.971-40.971l-41.75-41.75A166.777,166.777,0,0,1,254.51,88.006c92.4-.8,170.283,73.977,169.484,169.442C423.236,348.009,349.816,424,256,424a166.758,166.758,0,0,1-110.629-41.556A11.981,11.981,0,0,0,129,383L89.341,422.659a12.023,12.023,0,0,0,.482,17.433A247.086,247.086,0,0,0,256,504c136.966,0,248-111.033,248-248C504,119.193,392.354,7.755,255.545,8Z" transform="translate(-8 -8)" fill="#775000"/>
</svg>
