<svg xmlns="http://www.w3.org/2000/svg" width="58.842" height="55.314" viewBox="0 0 58.842 55.314">
  <g id="Group_15" data-name="Group 15" transform="translate(1.042 1)">
    <path id="Icon_metro-spoon-fork" data-name="Icon metro-spoon-fork" d="M16.3,56.892,13.334,39.113H11.112L9.63,56.892H8.149L6.667,39.113H4.445L1.482,56.892H0V33.78A1.778,1.778,0,0,1,1.778,32h4.63L4.662,3.549A3.312,3.312,0,0,1,8,0H9.778a3.312,3.312,0,0,1,3.338,3.549L11.371,32H16a1.778,1.778,0,0,1,1.778,1.778V56.892Z" transform="translate(17.571 54.057) rotate(-135)" fill="#775000"/>
    <path id="Icon_metro-spoon-fork-2" data-name="Icon metro-spoon-fork" d="M10.667,56.892C4.776,56.892,0,51.32,0,44.447c0-5.885,3.5-10.815,8.206-12.112L6.44,3.549A3.312,3.312,0,0,1,9.778,0h1.778a3.312,3.312,0,0,1,3.338,3.549L13.128,32.335c4.7,1.3,8.206,6.227,8.206,12.112C21.334,51.32,16.559,56.892,10.667,56.892Z" transform="translate(54.273 39.229) rotate(135)" fill="#775000"/>
  </g>
</svg>
